<svg xmlns="http://www.w3.org/2000/svg" viewBox="0 0 760 420" width="760" height="420" font-family="system-ui, -apple-system, Segoe UI, sans-serif" role="img" aria-label="Hospital wait (simulated) by strategy (ablation)">
<rect width="760" height="420" fill="#fcfcfb"/>
<text x="70" y="28" font-size="16" font-weight="600" fill="#0b0b0b">Hospital wait (simulated) by strategy (ablation)</text>
<text x="70" y="48" font-size="12" fill="#52514e">Unit: s; lower is better; seed 42, 100 scenarios</text>
<line x1="70" x2="740" y1="330.0" y2="330.0" stroke="#e6e5e0" stroke-width="1"/>
<text x="62" y="334.0" font-size="11" text-anchor="end" fill="#8a8984">0</text>
<line x1="70" x2="740" y1="243.3" y2="243.3" stroke="#e6e5e0" stroke-width="1"/>
<text x="62" y="247.3" font-size="11" text-anchor="end" fill="#8a8984">1000</text>
<line x1="70" x2="740" y1="156.7" y2="156.7" stroke="#e6e5e0" stroke-width="1"/>
<text x="62" y="160.7" font-size="11" text-anchor="end" fill="#8a8984">2000</text>
<line x1="70" x2="740" y1="70.0" y2="70.0" stroke="#e6e5e0" stroke-width="1"/>
<text x="62" y="74.0" font-size="11" text-anchor="end" fill="#8a8984">3000</text>
<line x1="70" x2="740" y1="330.0" y2="330.0" stroke="#52514e" stroke-width="1"/>
<text x="117.9" y="348" font-size="11" text-anchor="middle" fill="#52514e">FULL</text>
<text x="117.9" y="363" font-size="10" text-anchor="middle" fill="#8a8984">n=100</text>
<g><title>FULL: mean 1529 s (25.5 min), 95% CI [1153 s (19.2 min), 1906 s (31.8 min)], n=100</title><rect x="91.5" y="197.4" width="52.6" height="132.6" rx="4" fill="#2a78d6"/></g>
<line x1="117.9" x2="117.9" y1="164.8" y2="230.1" stroke="#0b0b0b" stroke-width="1.5"/>
<line x1="111.9" x2="123.9" y1="164.8" y2="164.8" stroke="#0b0b0b" stroke-width="1.5"/>
<line x1="111.9" x2="123.9" y1="230.1" y2="230.1" stroke="#0b0b0b" stroke-width="1.5"/>
<text x="117.9" y="156.8" font-size="11" text-anchor="middle" fill="#0b0b0b">1.53e+03</text>
<text x="213.6" y="348" font-size="11" text-anchor="middle" fill="#52514e">−CONFIDENCE</text>
<text x="213.6" y="363" font-size="10" text-anchor="middle" fill="#8a8984">n=100</text>
<g><title>−CONFIDENCE: mean 1529 s (25.5 min), 95% CI [1152 s (19.2 min), 1905 s (31.8 min)], n=100</title><rect x="187.2" y="197.5" width="52.6" height="132.5" rx="4" fill="#2a78d6"/></g>
<line x1="213.6" x2="213.6" y1="164.9" y2="230.1" stroke="#0b0b0b" stroke-width="1.5"/>
<line x1="207.6" x2="219.6" y1="164.9" y2="164.9" stroke="#0b0b0b" stroke-width="1.5"/>
<line x1="207.6" x2="219.6" y1="230.1" y2="230.1" stroke="#0b0b0b" stroke-width="1.5"/>
<text x="213.6" y="156.9" font-size="11" text-anchor="middle" fill="#0b0b0b">1.53e+03</text>
<text x="309.3" y="348" font-size="11" text-anchor="middle" fill="#52514e">−TRAFFIC</text>
<text x="309.3" y="363" font-size="10" text-anchor="middle" fill="#8a8984">n=100</text>
<g><title>−TRAFFIC: mean 1528 s (25.5 min), 95% CI [1153 s (19.2 min), 1903 s (31.7 min)], n=100</title><rect x="283.0" y="197.6" width="52.6" height="132.4" rx="4" fill="#2a78d6"/></g>
<line x1="309.3" x2="309.3" y1="165.1" y2="230.0" stroke="#0b0b0b" stroke-width="1.5"/>
<line x1="303.3" x2="315.3" y1="165.1" y2="165.1" stroke="#0b0b0b" stroke-width="1.5"/>
<line x1="303.3" x2="315.3" y1="230.0" y2="230.0" stroke="#0b0b0b" stroke-width="1.5"/>
<text x="309.3" y="157.1" font-size="11" text-anchor="middle" fill="#0b0b0b">1.53e+03</text>
<text x="405.0" y="348" font-size="11" text-anchor="middle" fill="#52514e">−HOSPITAL</text>
<text x="405.0" y="363" font-size="10" text-anchor="middle" fill="#8a8984">n=100</text>
<g><title>−HOSPITAL: mean 1999 s (33.3 min), 95% CI [1568 s (26.1 min), 2430 s (40.5 min)], n=100</title><rect x="378.7" y="156.8" width="52.6" height="173.2" rx="4" fill="#2a78d6"/></g>
<line x1="405.0" x2="405.0" y1="119.4" y2="194.1" stroke="#0b0b0b" stroke-width="1.5"/>
<line x1="399.0" x2="411.0" y1="119.4" y2="119.4" stroke="#0b0b0b" stroke-width="1.5"/>
<line x1="399.0" x2="411.0" y1="194.1" y2="194.1" stroke="#0b0b0b" stroke-width="1.5"/>
<text x="405.0" y="111.4" font-size="11" text-anchor="middle" fill="#0b0b0b">2e+03</text>
<text x="500.7" y="348" font-size="11" text-anchor="middle" fill="#52514e">−RESOURCE_REALLOCATION</text>
<text x="500.7" y="363" font-size="10" text-anchor="middle" fill="#8a8984">n=100</text>
<g><title>−RESOURCE_REALLOCATION: mean 1543 s (25.7 min), 95% CI [1161 s (19.3 min), 1926 s (32.1 min)], n=100</title><rect x="474.4" y="196.3" width="52.6" height="133.7" rx="4" fill="#2a78d6"/></g>
<line x1="500.7" x2="500.7" y1="163.1" y2="229.4" stroke="#0b0b0b" stroke-width="1.5"/>
<line x1="494.7" x2="506.7" y1="163.1" y2="163.1" stroke="#0b0b0b" stroke-width="1.5"/>
<line x1="494.7" x2="506.7" y1="229.4" y2="229.4" stroke="#0b0b0b" stroke-width="1.5"/>
<text x="500.7" y="155.1" font-size="11" text-anchor="middle" fill="#0b0b0b">1.54e+03</text>
<text x="596.4" y="348" font-size="11" text-anchor="middle" fill="#52514e">−DYNAMIC_REROUTING</text>
<text x="596.4" y="363" font-size="10" text-anchor="middle" fill="#8a8984">n=100</text>
<g><title>−DYNAMIC_REROUTING: mean 1528 s (25.5 min), 95% CI [1152 s (19.2 min), 1905 s (31.7 min)], n=100</title><rect x="570.1" y="197.5" width="52.6" height="132.5" rx="4" fill="#2a78d6"/></g>
<line x1="596.4" x2="596.4" y1="164.9" y2="230.2" stroke="#0b0b0b" stroke-width="1.5"/>
<line x1="590.4" x2="602.4" y1="164.9" y2="164.9" stroke="#0b0b0b" stroke-width="1.5"/>
<line x1="590.4" x2="602.4" y1="230.2" y2="230.2" stroke="#0b0b0b" stroke-width="1.5"/>
<text x="596.4" y="156.9" font-size="11" text-anchor="middle" fill="#0b0b0b">1.53e+03</text>
<text x="692.1" y="348" font-size="11" text-anchor="middle" fill="#52514e">−EXPLAINABILITY</text>
<text x="692.1" y="363" font-size="10" text-anchor="middle" fill="#8a8984">n=100</text>
<g><title>−EXPLAINABILITY: mean 1529 s (25.5 min), 95% CI [1153 s (19.2 min), 1906 s (31.8 min)], n=100</title><rect x="665.8" y="197.4" width="52.6" height="132.6" rx="4" fill="#2a78d6"/></g>
<line x1="692.1" x2="692.1" y1="164.8" y2="230.1" stroke="#0b0b0b" stroke-width="1.5"/>
<line x1="686.1" x2="698.1" y1="164.8" y2="164.8" stroke="#0b0b0b" stroke-width="1.5"/>
<line x1="686.1" x2="698.1" y1="230.1" y2="230.1" stroke="#0b0b0b" stroke-width="1.5"/>
<text x="692.1" y="156.8" font-size="11" text-anchor="middle" fill="#0b0b0b">1.53e+03</text>
<text x="70" y="390" font-size="10" fill="#8a8984">Bars: mean over scenarios. Whiskers: 95% CI of the mean (t-interval).</text>
<text x="70" y="404" font-size="10" fill="#8a8984">Simulated decision-support experiment - not clinical or real-world performance.</text>
</svg>